<svg xmlns="http://www.w3.org/2000/svg" viewBox="0 0 64 64" width="100" height="100">
  <path d="M2 12v40c0 1.1.9 2 2 2h20c2.2 0 4 1.8 4 4v-44c0-2.2-1.8-4-4-4H4c-1.1 0-2 .9-2 2z" fill="#fcd34d"/>
  <path d="M62 12v40c0 1.1-.9 2-2 2H40c-2.2 0-4 1.8-4 4v-44c0-2.2 1.8-4 4-4h20c1.1 0 2 .9 2 2z" fill="#fbbf24"/>
  <path d="M32 54c0-2.2-1.8-4-4-4H4V12h24c2.2 0 4 1.8 4 4v38z" fill="#fef3c7"/>
  <path d="M32 54c0-2.2 1.8-4 4-4h24V12H36c-2.2 0-4 1.8-4 4v38z" fill="#fde68a"/>
  <path d="M32 54v-38" stroke="#92400e" stroke-width="2"/>
</svg>
